<?xml version="1.0" encoding="UTF-8" standalone="no"?>
<svg id="svg2" xmlns:rdf="http://www.w3.org/1999/02/22-rdf-syntax-ns#" xmlns="http://www.w3.org/2000/svg" viewBox="0 0 170 170.1" version="1.1" xmlns:cc="http://creativecommons.org/ns#" xmlns:dc="http://purl.org/dc/elements/1.1/">
 <defs id="defs4"></defs>
 <metadata id="metadata7">
  <rdf:RDF>
   <cc:Work rdf:about="">
    <dc:format>image/svg+xml</dc:format>
    <dc:type rdf:resource="http://purl.org/dc/dcmitype/StillImage"/>
    <dc:title/>
   </cc:Work>
  </rdf:RDF>
 </metadata>
 <g id="layer1" transform="translate(-281.01974,-35.026959)">
  <path id="path2830" d="m357.19,204.95c-1.1398-0.32897-1.9474-0.84958-2.8695-1.85-2.4375-2.6443-2.0517-6.6812,0.85034-8.897,2.3756-1.814,6.0018-1.4783,8.0514,0.74527,2.9049,3.1514,1.7667,8.1372-2.2378,9.8029-0.96541,0.40157-2.7652,0.49586-3.7944,0.19881zm30.469-3.9944c-1.656-0.54129-3.3507-2.2856-3.8877-4.0014-0.32708-1.0452-0.14844-3.487,0.32098-4.3874,0.6602-1.2664,1.6367-2.2272,2.8911-2.8447,2.9028-1.4291,6.3809-0.29369,7.9881,2.6076,0.49126,0.88678,0.53432,1.1111,0.53432,2.7831,0,1.5412-0.0652,1.9509-0.42716,2.686-0.54719,1.1112-1.7837,2.3463-2.8807,2.8773-1.0587,0.51252-3.3871,0.6558-4.539,0.2793zm-61.532-4.7712c-4.3847-1.5925-5.6106-7.1607-2.257-10.252,1.1393-1.0502,2.2445-1.5039,3.8928-1.598,1.7223-0.0983,3.0599,0.36497,4.3172,1.4954,1.3379,1.2029,1.9198,2.4159,2.0095,4.1886,0.0594,1.1744-0.002,1.6584-0.31743,2.494-0.50898,1.3494-1.7532,2.7215-3.0374,3.3498-1.2866,0.6295-3.3617,0.77449-4.6076,0.32199zm90.446-10.99c-1.7188-0.34004-3.4432-1.7001-4.2384-3.3426-0.59501-1.2291-0.70818-3.1686-0.26771-4.5878,0.26745-0.86176,0.55714-1.291,1.5231-2.257,0.96594-0.96593,1.3952-1.2556,2.257-1.5231,3.6503-1.1329,7.3557,1.1044,7.951,4.8009,0.30449,1.8907-0.21028,3.5601-1.561,5.0624-0.88751,0.98712-1.9873,1.5939-3.3611,1.8545-1.0769,0.20423-1.2361,0.20372-2.3028-0.007zm-68.309-12.287c-0.0732-0.0732-0.13301-4.7457-0.13301-10.384,0-11.509,0.11559-10.674-1.4078-10.176-2.0998,0.6864-2.8062,0.89444-4.7754,1.4064-1.1503,0.29907-2.4597,0.66259-2.9098,0.8078-1.15,0.37103-6.4649,1.7255-7.4911,1.9091-0.46928,0.0839-1.2876,0.27495-1.8186,0.42442-0.53096,0.14949-1.7838,0.44396-2.784,0.65437s-2.146,0.46351-2.546,0.56242c-0.40009,0.0989-1.1776,0.26534-1.7277,0.3698-0.55013,0.10446-1.3276,0.26846-1.7277,0.36443-0.40009,0.096-1.2594,0.25698-1.9095,0.35781-0.65015,0.10082-1.5913,0.29838-2.0914,0.43899-0.50012,0.14061-1.4412,0.34992-2.0914,0.46511-0.65015,0.11517-2.0133,0.35643-3.0292,0.53612-1.0159,0.17968-1.9191,0.37116-2.007,0.42552-0.0879,0.0543-1.5072,0.31134-3.154,0.57111-1.6468,0.25975-3.6937,0.63402-4.5487,0.83167-0.85503,0.19766-1.8371,0.36134-2.1823,0.36372-0.34525,0.002-0.95507,0.083-1.3552,0.17922-0.40009,0.0962-1.464,0.25994-2.3642,0.36389-0.90021,0.10397-2.2505,0.31582-3.0007,0.47076-0.75018,0.15496-2.0186,0.35523-2.8188,0.44503-0.80018,0.0898-2.5636,0.32437-3.9187,0.52127-2.4541,0.35657-3.4986,0.31931-4.0577-0.14478-0.13036-0.10819-0.47108-0.62675-0.75715-1.1524-0.91105-1.6739-0.8423-4.5105,0.14481-5.9753,0.56372-0.8365,1.5182-1.1509,4.5878-1.5113,5.1603-0.60584,6.9206-0.82926,7.3343-0.93085,0.47547-0.11677,4.6281-0.73515,6.8508-1.0202,0.80018-0.1026,1.9868-0.30114,2.637-0.44117,0.65015-0.14004,1.8368-0.33626,2.637-0.43607,0.80018-0.0998,1.7249-0.2613,2.0549-0.35891,0.33-0.0976,1.1893-0.23423,1.9095-0.30361,0.72025-0.0694,1.5104-0.20104,1.756-0.29258,0.24555-0.0915,0.98208-0.24041,1.6367-0.3308,0.65467-0.0904,1.8041-0.29033,2.5543-0.4443,2.2525-0.46233,4.7025-0.95738,6.8198-1.378,1.1002-0.21857,2.3687-0.50571,2.8188-0.63808s1.1866-0.29286,1.6367-0.35664c0.45011-0.0638,1.1866-0.22161,1.6368-0.35073,0.4501-0.12912,1.6367-0.41969,2.637-0.64571,1.5714-0.3551,3.3481-0.78799,6.8198-1.6617,1.6542-0.41628,6.8545-1.8221,8.0019-2.1631,0.65015-0.19325,1.3458-0.37508,1.5458-0.40406,0.32413-0.047,0.36941-0.21228,0.41602-1.5188l0.0523-1.4661-1.0653-0.83691c-5.3406-4.1958-8.8223-10.413-9.685-17.296-0.27558-2.1983-0.14238-6.1581,0.27925-8.3017,1.18-5.9993,4.3391-11.25,9.1843-15.266l1.1821-0.97969,0.0909-16.292,0.0909-16.292,13.185-0.054c13.817-0.0566,17.356,0.0586,21.582,0.70233,17.315,2.6377,31.988,13.154,39.417,28.249,7.4678,15.175,7.642,33.528,0.46167,48.624-7.073,14.87-20.51,25.295-36.955,28.67-5.1261,1.0522-5.344,1.0635-22.053,1.1448-8.5038,0.0414-15.521,0.0154-15.595-0.0578zm28.246-9.9051c16.296-1.2931,28.974-9.3697,35.46-22.589,5.4134-11.034,6.1942-25.225,2.0583-37.413-2.864-8.4394-8.0441-15.221-15.361-20.109-2.5264-1.6879-6.8336-3.8245-9.6402-4.782-6.4229-2.1912-11.81-2.8154-23.438-2.7159l-6.456,0.0553-0.0472,8.9913c-0.0293,5.5749,0.0192,9.0577,0.12757,9.166,0.099,0.099,1.2722,0.15771,2.7066,0.1354,3.884-0.0604,6.6138,0.41626,9.8893,1.7268,3.3371,1.3352,5.942,3.0962,8.6392,5.8405,3.4256,3.4855,5.8044,7.9576,6.8973,12.967,0.48343,2.216,0.48329,8.3352-0.00019,10.543-1.121,5.1185-3.5665,9.6304-7.1496,13.191-2.9824,2.9635-5.7323,4.6796-10.06,6.2785-1.1503,0.42492-2.42,0.91818-2.8215,1.0961-0.73178,0.32426-2.4192,0.93967-5.8168,2.1214-1.0002,0.34789-1.9618,0.70907-2.1368,0.80262-0.29492,0.15763-0.31826,0.70079-0.31826,7.4078,0,3.9807,0.0546,7.2923,0.12124,7.359,0.1984,0.19839,14.695,0.1375,17.346-0.0729zm59.531-4.7814c-1.8848-0.61711-3.4683-2.2998-3.9984-4.2489-0.7729-2.8419,0.59706-5.7409,3.351-7.091,0.87401-0.4285,1.2503-0.50343,2.4849-0.49476,2.8495,0.02,5.0437,1.655,5.8237,4.3396,0.82343,2.834-0.49948,5.8434-3.1358,7.1332-1.1972,0.58573-3.3225,0.75566-4.5254,0.36185zm7.2015-29.812c-1.6229-0.46112-3.2389-1.9335-3.9347-3.5851-0.44785-1.063-0.51526-2.7022-0.16124-3.9206,1.2863-4.427,6.8504-5.8741,10.098-2.6264,3.0521,3.0521,2.0103,8.229-2.0005,9.9404-0.87657,0.37403-3.0018,0.47587-4.0018,0.19175zm-5.8531-31.859c-1.1289-0.3109-1.9401-0.8304-2.8672-1.8362-2.8282-3.0682-1.6066-8.1137,2.356-9.7304,1.018-0.41535,3.544-0.34084,4.5784,0.13506,1.1546,0.53119,2.4484,1.7629,3.0161,2.8714,0.6658,1.3,0.77463,3.4286,0.24679,4.8266-0.70064,1.8557-2.2245,3.2286-4.1364,3.7265-1.2458,0.32449-2.0347,0.32622-3.1938,0.007zm-19.573-28.376c-1.651-0.46274-3.0282-1.609-3.9071-3.2519-0.33618-0.6284-0.40047-1.0407-0.40035-2.5672,0.00012-1.621,0.0528-1.9174,0.4848-2.7279,0.62798-1.1782,1.8268-2.3302,2.9704-2.8547,1.3098-0.6006,3.8121-0.59423,5.0441,0.0128,3.0785,1.517,4.3577,5.2734,2.8344,8.3236-0.55161,1.1045-2.0987,2.4971-3.1892,2.8706-1.271,0.43545-2.7164,0.50878-3.8371,0.19466zm-91.486-11.919c-1.849-0.379-3.6273-1.8149-4.4464-3.5903-0.61319-1.329-0.5638-3.6049,0.10799-4.9755,0.55763-1.1377,1.6819-2.2735,2.887-2.9166,0.6759-0.36069,1.0556-0.4221,2.6096-0.4221s1.9337,0.0614,2.6096,0.4221c1.2045,0.64276,2.3291,1.7785,2.888,2.9166,0.43056,0.87675,0.50383,1.2508,0.50383,2.5718,0,1.3241-0.0729,1.6942-0.50816,2.5806-1.222,2.4885-4.0595,3.9446-6.6514,3.4134zm62.606-5.064c-1.6985-0.43967-3.2243-1.6748-4.1031-3.3216-0.36074-0.67598-0.42209-1.0554-0.42197-2.6096,0.00012-1.6178,0.0535-1.9198,0.48384-2.7352,0.58911-1.1164,1.8854-2.3447,3.0304-2.8714,0.65708-0.3023,1.2016-0.39161,2.3961-0.39298,1.3263-0.001,1.6928,0.0704,2.5806,0.50639,1.3352,0.65568,2.7414,2.1778,3.1509,3.4106,0.44657,1.3445,0.31795,3.6153-0.27046,4.775-0.54737,1.0788-1.9292,2.3969-3.0177,2.8783-0.90014,0.39818-2.9408,0.59032-3.8287,0.36049zm-31.259-4.1816c-3.71-0.97966-5.5958-5.1778-3.8996-8.6816,0.46203-0.95443,1.938-2.3507,2.9652-2.8051,3.1251-1.3824,6.9193,0.2319,8.1392,3.463,0.50402,1.3349,0.41764,3.5333-0.1847,4.701-1.0696,2.0734-2.9573,3.3192-5.1701,3.412-0.71744,0.0301-1.55-0.0101-1.85-0.0893z" fill="#543c7c"/>
 </g>
</svg>