<svg xmlns="http://www.w3.org/2000/svg" width="660" height="660" viewBox="0 35 330 230.7">
  <g fill="#feff7c">
    <path d="M184.757 114.87c-.122-.337-.97-21.518-.97-24.204 0-.54-.062-.92-.138-.845-.08.08-.5 1.42-.94 2.99-.62 2.22-.89 4.08-1.24 8.44-.41 5.1-.72 6.78-1.09 5.72-.08-.21-.32-3.62-.54-7.57-.22-3.95-.47-7.26-.55-7.34-.35-.35-.99.61-.99 1.48 0 .75-.1.93-.48.85-.31-.05-.51-.38-.56-.9-.3-3.05-1.3.17-1.76 5.64-.51 6.21-1.03 5.47-1.45-2.09l-.2-3.55-.46 1.1c-.34.81-.54 2.58-.76 6.79-.17 3.18-.43 5.83-.59 5.99-.45.44-.5.02-.96-7.29-.23-3.73-.5-6.86-.58-6.95-.33-.33-.63.68-.82 2.74-.18 2.07-.52 2.84-.95 2.15-.11-.18-.36-1.61-.56-3.18-.41-3.29-.77-3.53-1.66-1.06-.28.79-.31.8-.68.29-.22-.29-.39-.88-.39-1.3 0-2.05-1.23.26-1.51 2.83-.4 3.69-.96 3.24-1.91-1.55-.51-2.54-.98-6.88-1.65-15.29-2.37-29.69-3.45-42.64-3.6-43.27-.15-.63-.19-.6-.49.4-.35 1.19-.84 1.55-1.06.78-.08-.27-.29-1.86-.47-3.53-.44-4.14-.83-4.74-1.35-2.04-.46 2.41-.97 2.54-1.26.33-.19-1.43-.52-2.17-.83-1.86-.11.11-.37 1.76-.58 3.68-.39 3.47-.59 4.3-1.06 4.3-.19 0-.7-3.98-.91-7.09-.03-.47-.08-.48-.29-.11-.14.24-.45 4.23-.7 8.87-.25 4.64-.5 8.62-.57 8.83-.42 1.3-.72-1.09-1.1-8.6-.58-11.59-.91-11.93-1.47-1.49-.26 4.79-.56 6.57-.93 5.44-.07-.21-.31-3.21-.54-6.66-.41-6.23-.68-7.97-1.13-7.24-.12.19-.3 1.04-.39 1.88-.13 1.16-.28 1.55-.65 1.62-.39.08-.47-.11-.47-1.11 0-.66-.15-1.62-.33-2.13l-.32-.92-.23.82c-.13.45-.42 4.69-.65 9.42-.23 4.73-.47 8.77-.54 8.99-.4 1.17-.69-.96-1.2-8.71-.55-8.36-1.11-12.15-1.64-11.18-.41.74-.81 7.42-1.12 18.69-.27 10.03-.48 12.55-.92 11.31-.08-.21-.38-5.79-.69-12.39-.61-13.38-.77-15.7-1.09-16.22-.13-.2-.66-.4-1.2-.45-.88-.08-1-.01-1.24.79-.15.48-.42 2.28-.59 4.01-.18 1.72-.36 3.18-.42 3.24-.05.06-.27.04-.48-.04-.23-.09-.5-.96-.71-2.29-.35-2.3-.56-3.19-.71-3.05-.05.05-.29 1.26-.54 2.68-.24 1.43-.55 2.7-.69 2.84-.39.39-.73-.86-.95-3.43-.21-2.52-.54-3.55-.78-2.4-.08.37-.34 3.13-.58 6.13-.4 4.97-.72 6.65-1.07 5.58-.07-.21-.27-3.09-.45-6.39-.51-9.62-.86-8.8-1.38 3.28-.17 4.06-.42 7.48-.54 7.62-.49.54-.73-1.33-1.06-8.3-.49-10.04-.83-10.49-1.37-1.79-.16 2.69-.36 5-.44 5.12-.37.59-.61-.29-.91-3.25-.38-3.74-.68-4.84-.93-3.35-.09.52-.36 3.35-.6 6.28-.4 4.84-.72 6.5-1.06 5.44-.07-.21-.31-4.24-.52-8.94-.48-10.21-.95-11.76-1.42-4.69-.4 5.99-1.81 22.47-1.95 22.69-.44.72-.6-.62-.77-6.52-.1-3.57-.3-9.47-.44-13.11-.32-8.59-.81-9.82-1.25-3.12-.24 3.68-.63 3.92-1.6.95-1.04-3.19-1.31-1.8-2.33 11.95-.75 10.17-1.08 12.68-1.46 11.44-.07-.21-.27-5.79-.44-12.4s-.43-13.12-.56-14.47c-.14-1.35-.25-2.73-.26-3.07 0-.34-.11-.61-.23-.61-.55 0-1.14 4.44-1.57 11.88-.42 7.15-.67 8.95-1.17 8.45-.09-.09-.37-4.2-.61-9.13-.25-4.93-.54-9.11-.65-9.29-.36-.58-.65.28-.84 2.53-.18 1.99-.43 2.71-.77 2.17-.08-.13-.26-1.19-.4-2.36-.31-2.48-.72-3.17-.96-1.61-.09.57-.36 3.93-.59 7.46-.39 5.8-.69 7.65-1.05 6.53-.07-.21-.28-3.27-.45-6.8-.18-3.53-.43-6.6-.54-6.82-.34-.61-.5 1.25-.83 9.41-.17 4.06-.36 7.55-.43 7.76-.11.34-.17.34-.49 0-.26-.28-.46-2.25-.69-6.94-.42-8.49-.61-10.86-.85-10.59-.11.12-.35 2-.53 4.17-.18 2.18-.39 4.06-.47 4.19-.37.59-.65-.53-1.03-4.05-.47-4.38-.61-5.12-.93-4.92-.13.08-.32.82-.42 1.63-.17 1.38-.74 2.39-1.06 1.88-.07-.12-.26-.94-.43-1.83-.54-2.94-.72-2.62-1.28 2.31-.61 5.41-1.1 5.81-1.74 1.4-.48-3.29-.7-3.51-1.11-1.12-.75 4.34-1.24 4.22-1.78-.43-.2-1.75-.45-3.42-.54-3.71-.25-.79-.62-.37-.82.95-.33 2.22-1.06 2.41-1.36.35-.2-1.29-.54-2.03-.83-1.75-.1.1-.37 1.82-.59 3.82-.6 5.34-1.25 5.54-1.58.49-.19-2.96-.48-4.11-.77-3.1-.08.28-.35 4.39-.6 9.11-.41 7.79-.66 9.85-1.06 8.72-.07-.21-.32-4.37-.55-9.24-.55-11.61-.97-12.13-1.41-1.72-.12 2.93-.3 4.6-.53 4.91-.52.71-.57.4-1.03-6.35-.22-3.3-.49-6.23-.6-6.5-.29-.74-.61-.09-.83 1.73-.22 1.82-.32 2.03-.82 1.62-.22-.19-.38-.82-.38-1.5 0-.64-.14-1.52-.32-1.94l-.32-.77-.22 1.09c-.12.6-.41 4.96-.66 9.69-.4 7.68-.67 9.95-1.06 8.72-.07-.21-.38-4.32-.69-9.12-.36-5.64-.72-9.25-1-10.19-.24-.8-.48-1.41-.53-1.36-.38.39-.76 6.33-1.12 17.56-.36 11.58-.6 14.63-1.04 13.23-.07-.21-.32-5.05-.57-10.76-.54-12.62-.88-17.92-1.16-18.17-.12-.1-.62-.26-1.11-.36-.82-.15-.93-.09-1.26.72-.19.49-.5 2.36-.69 4.16-.48 4.78-.96 4.8-1.66.06-.19-1.32-.44-2.45-.54-2.51-.1-.07-.34 1.01-.53 2.4-.6 4.42-1.19 4.54-1.65.33-.16-1.5-.37-3.03-.46-3.41-.14-.58-.2-.49-.36.55-.11.67-.36 3.35-.55 5.94-.24 3.19-.47 4.81-.72 5.01-.52.44-.56.21-.9-6.18-.17-3.15-.41-5.84-.54-5.96-.31-.31-.51 2.13-.86 10.87-.16 4.06-.35 7.55-.42 7.76-.38 1.2-.65-.97-1.05-8.44-.24-4.58-.52-8.63-.61-9.01-.25-1.03-.53 1.07-.77 5.77-.32 6.17-.95 6.9-1.48 1.68-.58-5.83-.75-5.45-1.41 3.26-.32 4.29-.53 5.24-1.01 4.72-.13-.15-.39-3.47-.566-7.37-.36-8.07-.55-10.1-.886-9.76-.13.13-.42 2.69-.64 5.68-.92 12.21-1.684 20.79-1.88 21.1-.11.18-.3.27-.42.2s-.3-3.61-.404-7.85c-.28-11.3-.66-18.84-.98-19.15-.15-.15-.28-.22-.284-.15-.54 8.33-.84 9.15-2.03 5.51-.49-1.5-.79-1.76-1.1-.96-.11.26-.57 5.49-1.04 11.61-.74 9.62-.92 11.12-1.28 11.05-.37-.07-.47-1.61-.77-11.82-.19-6.45-.51-13.02-.704-14.6l-.35-2.86-.47 1.5c-.32 1.03-.64 4.21-1.04 10.24-.32 4.8-.68 8.85-.8 8.99-.49.54-.72-1.36-1.04-8.71-.36-8.13-.52-9.97-.87-9.97-.23 0-.33.47-.72 3.41-.12.9-.34 1.64-.48 1.64-.15 0-.36-.74-.48-1.64-.39-3.05-.5-3.5-.79-3.21-.27.28-1.03 8.88-1.04 11.84-.01 1.02-.15 1.65-.42 1.88-.32.27-.43.26-.52-.04-.07-.21-.27-3.14-.44-6.52-.51-9.75-.84-8.59-1.38 4.78-.16 4.06-.35 7.55-.42 7.76-.39 1.22-.68-.97-1.06-8.17-.48-8.98-.65-11.04-.9-10.79-.1.1-.33 1.97-.51 4.16-.31 3.67-.68 5.16-1.03 4.15-.07-.21-.33-2.23-.58-4.48-.24-2.26-.55-4.21-.68-4.34-.23-.25-.33.06-.74 2.29-.14.78-.36 1.23-.61 1.23s-.47-.45-.614-1.23c-.41-2.24-.51-2.54-.75-2.29-.13.13-.44 2.02-.69 4.2-.25 2.18-.56 4.07-.69 4.21-.54.55-.79-.86-1.54-8.63-.15-1.57.02-1.8.92-1.23.51.32.89-.67 1.19-3.15.15-1.24.33-2.43.41-2.64.27-.77.68.18 1.1 2.59.59 3.42.74 3.47 1.21.38.36-2.36.73-3.45 1.07-3.1.13.14.37 1.35.53 2.69.16 1.34.42 2.57.57 2.72.16.17.29.17.3.02.83-9.24.95-10.08 1.37-10.16.38-.08.46.45.63 3.95.21 4.44.4 6.08.71 6.08.32 0 .51-2.07.84-9.42.28-6.18.53-8.05.92-6.94.07.22.33 3.83.57 8.04.55 9.71.97 10.56 1.38 2.73.3-5.74.98-6.05 1.5-.68.32 3.29.77 4.946.82 2.99.01-.52.23-3.28.48-6.13.37-4.23.53-5.19.87-5.19.34 0 .46 1.01.71 6.29.34 7 .56 9.06.95 8.67.33-.33.58-2.75 1.5-14.34.41-5.22.84-9.64.96-9.83.14-.22.3-.25.46-.07.13.15.38 5 .55 10.78.17 5.78.45 11.706.62 13.16l.31 2.65.76-.8c.76-.81.92-.88 2.16-.92.54-.02.71-.21.88-.98.11-.523.47-6.543.78-13.375s.63-12.6.7-12.81c.08-.28.2-.31.42-.09.19.19.42 4.37.66 11.91.34 11.16.81 17.54 1.22 16.77.62-1.16 1.1-4.74 1.49-11.15.25-3.98.5-7.41.57-7.62.42-1.28.74.95 1.08 7.65.4 7.73.58 9.52.97 9.52.21 0 .62-1.27.84-2.58.17-.98.64-.53.83.79.194 1.37.574 2.04.88 1.55.27-.43.65-3.91.86-7.86.2-3.58.42-4.58.9-4.05.14.15.37 2.64.52 5.54.28 5.42.68 7.16.98 4.23.09-.87.3-4.72.47-8.55.17-3.82.36-7.13.43-7.34.38-1.18.65.91 1.05 8.03.24 4.35.51 8.27.593 8.7.27 1.344.63.41.82-2.15.2-2.64.53-3.92.91-3.516.13.13.38 1.52.56 3.08.18 1.55.45 3.15.6 3.55.26.69.28.7.66.18.21-.29.39-.82.39-1.18 0-.98.87-.66 1.15.42.13.49.4.89.6.89.44 0 .61-.62.86-3.14.34-3.47 1.01-3.99 1.75-1.37.19.67.43 1.16.54 1.09.11-.07.35-.68.54-1.35.38-1.35 1-2.12 1.21-1.48.06.2.19 1.29.29 2.413.65 7.94 1.19 3.02 1.66-15.37.17-6.61.33-8.064.78-7.34.13.21 1.02 10.4 1.8 20.52.33 4.37.53 5.73.81 5.73.34 0 .51-1.88.84-9.42.18-3.9.37-7.27.44-7.48.35-1.1.69.636 1.06 5.31.54 6.75.68 7.797.97 7.086.12-.3.37-1.99.55-3.76.3-3.01.54-3.85.93-3.23.09.14.29 2.32.45 4.85.16 2.52.39 4.83.51 5.13.21.52.23.51.38-.13.09-.38.34-3.92.55-7.88.23-4.1.52-7.33.68-7.49.46-.46.52.03.85 7.59.17 3.9.38 7.57.47 8.14.33 2.15.65.4.93-5.02.16-3.07.35-5.75.41-5.96.34-1.09.69.61 1.06 5.18.64 7.93.89 8.51 1.48 3.43.5-4.26.83-4.23 1.53.11.27 1.66.58 2.92.69 2.8.11-.12.35-1.35.54-2.74.19-1.39.52-2.66.72-2.83.48-.4.56-.14.89 2.9.14 1.35.4 2.82.57 3.27l.31.81.66-.8c.56-.68.71-.74.937-.4.79 1.22.81 1.23 1.11.92.17-.16.43-1.14.58-2.18.43-3 .62-3.79.91-3.79.25 0 .5 1.04 1.08 4.33.1.58.27.97.37.87.1-.1.38-1.25.61-2.55.3-1.71.53-2.37.82-2.37.29 0 .48.63.72 2.46.17 1.35.33 2.58.34 2.72.01.14.15.12.32-.04s.48-2.49.7-5.17c.44-5.43.51-5.8.96-5.35.17.17.4 2.11.53 4.48.28 5.05.44 6.13.83 5.74.17-.17.45-3.61.68-8.16.35-7.03.63-9.204 1.02-7.99.07.22.31 3.87.53 8.12.22 4.25.47 7.81.56 7.9.37.37.48-.35.76-4.74.42-6.607 1.02-6.88 1.61-.73.19 2.01.43 3.555.53 3.44.1-.115.39-2.97.66-6.35.45-5.84.65-7.004 1.1-6.285.11.17.36 3.47.56 7.33.37 7.14.63 9.14 1.04 8.09.11-.29.63-5.82 1.16-12.27.52-6.45 1.01-11.91 1.08-12.12.1-.29.21-.31.44-.08.21.21.42 3.908.66 11.44.19 6.128.48 11.93.63 12.91.15.98.28 1.96.28 2.187.01.28.21.17.62-.31.78-.92 1.72-1.4 2.37-1.19.32.1.57 0 .67-.283.3-.77.67-6.45 1.13-17.32.25-5.78.51-10.69.57-10.9.42-1.34.65 1.37.91 11.03.29 10.52.66 16.82 1.09 18.37.19.69.24.64.68-.76.32-1.03.64-4.05 1.01-9.56.3-4.43.6-8.23.68-8.44.39-1.16.653.81.92 6.94.41 9.4 1 13.11 1.54 9.71.09-.57.26-1.19.38-1.38.33-.53.82-.06.82.78 0 .412.173.99.383 1.272.36.49.4.45.666-.57.16-.59.43-3.36.6-6.13.34-5.54.41-5.97.85-5.53.16.16.4 2.24.54 4.62.56 9.952.97 9.49 1.51-1.71.37-7.54.63-9.76 1.03-8.54.07.21.32 4.05.558 8.53.4 7.72.71 10.03 1.09 8.37.08-.37.25-1.78.36-3.13.16-1.89.3-2.47.63-2.53.35-.06.48.45.73 2.87.17 1.62.397 3.16.5 3.43.27.71.76.42 1.11-.65.44-1.33.68-1.22 1.48.7l.34.82.35-.82c.19-.45.43-1.83.54-3.06.27-3.19 1.04-3.61 1.75-.95.37 1.39.64 1.31 1.1-.34.38-1.35 1.007-2.12 1.21-1.48.07.21.18 1.43.25 2.73.13 2.54.53 3.84.81 2.66.26-1.13.46-5 .76-15.39.26-9.01.48-11.483.9-10.22.07.22.39 3.58.7 7.49.31 3.9.75 9.37.97 12.15.44 5.49.61 6.63.95 6.42.29-.183.49-2.54.83-9.97.16-3.38.35-6.32.42-6.53.36-1.05.67.61 1.07 5.85.45 5.76.61 7.12.82 6.91.07-.06.31-1.76.55-3.78.39-3.39.68-4.48 1.03-3.91.07.124.28 2.44.47 5.14.55 8.18.88 7.45 1.4-3.08.29-6.01.39-6.89.76-6.82.37.07.48 1.11.76 7.04.18 3.83.4 7.39.5 7.91.34 1.832.64.182.95-5.198.28-4.83.5-6.17.9-5.53.08.13.34 2.63.59 5.55.24 2.93.51 5.502.58 5.73.28.79.61-.31.81-2.63.11-1.31.34-2.39.54-2.56.47-.39.57-.18.93 1.92.7 4.06.73 4.07 1.35.48.33-1.88.55-2.53.85-2.53.32 0 .48.62.72 2.73.17 1.5.4 2.95.51 3.22.31.74.78.4 1.11-.79.37-1.31.7-1.23 1.12.253.18.62 1.45 14.89 2.82 31.71 1.38 16.81 2.58 30.76 2.66 30.98.2.52.29.16.71-2.83.24-1.66.43-2.24.76-2.3.33-.06.49.214.63 1.09.55 3.483 1.03 3.9 1.4 1.19.106-.758.3-1.668.43-2.02.2-.53.31-.587.65-.31.22.19.4.72.41 1.19.01 1.52.59 3.493.92 3.15.06-.06.31-2.138.55-4.61.42-4.186.68-5.34 1.07-4.71.09.14.24 1.78.34 3.64.11 2.08.347 3.753.6 4.34.38.86.43.89.53.33.06-.34.26-3.17.43-6.28.27-4.71.39-5.66.73-5.66.34 0 .47.9.75 5.092.31 4.56.67 6.83 1.03 6.46.07-.07.26-1.71.42-3.65.16-1.94.35-3.7.42-3.91.3-.87.68.28 1.07 3.24.23 1.7.47 3.15.54 3.22.21.202.37-.94.84-5.95.42-4.41.74-5.88 1.07-4.89.07.21.26 2.634.42 5.38.19 3.34.446 5.47.76 6.42l.48 1.42.2-1.368c.11-.75.58-5.48 1.04-10.51s.9-9.32.97-9.53c.4-1.18.64.95.92 8.37.17 4.54.42 8.59.55 9.01.13.41.38 1.92.54 3.35.17 1.43.37 2.9.45 3.27l.15.67.46-.58c.55-.7 1.46-1.19 2.19-1.19.64 0 .6.4 1.42-14.58.31-5.54.62-10.18.7-10.31.45-.72.61.75.79 7.35.21 7.502.32 8.94 1.1 14.82.48 3.612.61 4.253.83 4.032.07-.08.43-3.85.78-8.39.58-7.41.95-9.72 1.36-8.454.07.21.26 2.78.42 5.71.38 6.75 1.4 11.16 1.71 7.37.11-1.3.57-1.21.91.19.27 1.11.8 1.95 1.07 1.68.07-.07.33-2.58.57-5.58.4-5 .7-6.59 1.06-5.56.08.21.26 2.19.41 4.41.15 2.24.43 4.29.62 4.64.32.56.37.44.524-1.3.1-1.05.27-3.89.38-6.31.2-4.32.41-5.42.91-4.87.14.15.39 2.59.57 5.416.29 4.79.71 7.55 1.14 7.55.1 0 .26-1.1.37-2.45.29-3.7.96-3.5 1.37.407.2 1.92.74 3.41 1.24 3.41.14 0 .26-.28.26-.63s.17-.87.39-1.16c.37-.51.4-.5.68.29.88 2.46 1.23 2.22 1.68-1.13.21-1.6.52-2.96.69-3.02.17-.05.58.56.92 1.35l.62 1.45.57-1.31c.85-1.95 1.39-1.66 1.49.81.06 1.31.22 2.066.49 2.29.23.19.46.28.53.22.06-.07.28-4.75.48-10.41.25-7.02.47-10.4.68-10.61.24-.24.35-.23.45.07.07.21.51 4.5.98 9.53.49 5.29 1.03 9.72 1.28 10.51.24.75.48 1.24.53 1.09.05-.15.26-3.17.46-6.71.36-6.17.51-7.25.99-6.95.12.07.44 2.6.71 5.61.27 3.01.59 5.38.69 5.26.11-.11.34-1.494.52-3.07.35-3.1.4-3.28.95-3.28.28 0 .41.83.56 3.35.11 1.845.35 3.72.53 4.165.34.8.34.78.51-.83.1-.9.31-3.97.47-6.82.17-2.85.36-5.36.43-5.57.36-1.13.64.68.93 5.84.21 3.9.46 6.17.77 7.1l.45 1.37.22-3.96c.37-6.53 1.05-6.94 1.57-.95.31 3.57.63 5.04 1.01 4.66.09-.09.3-1.11.46-2.28.41-2.92.94-2.88 1.51.12.23 1.23.5 2.31.59 2.39.09.09.365-.85.61-2.09s.57-2.37.71-2.51c.36-.35.71.64.96 2.69.11.9.46 2.13.78 2.73.54 1.03.58 1.05.68.41.17-1.19.57-1.29 1.31-.34.38.49.79.89.9.89.116 0 .35-1.19.53-2.63.18-1.45.396-2.74.48-2.88.34-.56.85.41 1.18 2.23.19 1.05.45 1.97.57 2.05.13.08.37-.56.53-1.43.7-3.65 1.09-4.14 1.47-1.84.33 2.01.72 3.42.96 3.42.11 0 .4-2.02.64-4.48.23-2.46.51-4.62.62-4.78.44-.72.64.19.83 3.72.12 2.4.34 4.04.6 4.53.22.43.43.74.48.68.04-.05.23-2.98.41-6.51.18-3.53.38-6.59.45-6.8.38-1.16.74.73 1.05 5.47.22 3.35.49 5.63.75 6.24.41.95.41.94.62-2.04.41-5.96.89-6.77 1.45-2.45.196 1.5.43 3.04.52 3.41.16.66.17.66.36-.2.11-.48.36-2.69.55-4.91.59-6.86 1.21-7.09 1.49-.55.16 3.83.5 6.27 1.17 8.536.09.3.63-4.3 1.2-10.22s1.1-10.935 1.18-11.14c.44-1.15.65.64.83 6.955.11 3.87.3 7.77.44 8.67.13.91.45 3.27.71 5.26.26 1.99.57 3.62.69 3.62s.22-.12.22-.28c0-.4 1.67-1.36 2.38-1.36.55 0 .62-.14.64-1.3.01-.71.29-5.96.61-11.67.5-8.78.65-10.37 1-10.37s.45 1.26.72 8.46c.17 4.66.43 8.83.57 9.29.14.45.42 2.27.61 4.04.2 1.77.45 3.12.57 3 .11-.12.49-3.87.82-8.35.53-7 .67-8.12 1.04-8.05.35.07.48.96.74 5.27.27 4.48.81 8.04 1.29 8.52.13.13.32-.5.5-1.7.14-.93.59-.61.83.59.19 1 .86 2 1.13 1.7.05-.06.29-2.53.52-5.49.23-2.96.5-5.51.59-5.67.44-.71.65.28.83 4.02.17 3.44.59 5.8 1.04 5.8.06 0 .27-3.14.47-6.97s.45-7.03.57-7.1c.44-.28.59.63.96 5.97.37 5.45.96 8.77 1.28 7.28.09-.37.22-1.46.31-2.41.275-3.12.79-2.92 1.25.48.17 1.27.54 2.74.81 3.28l.5.97.31-1.16c.17-.64.42-1.16.55-1.16s.47.46.74 1.03.62 1.02.77 1.02.41-1.13.58-2.51c.48-3.87.71-4.1 1.77-1.78l.58 1.28.545-1.296c.3-.71.66-1.29.793-1.29.4 0 .78 1.31.79 2.68 0 .85.18 1.51.54 1.96l.53.69v-1.4c.01-3.04.61-19.95.72-20.32.1-.34.17-.34.48 0 .24.26.64 3.39 1.21 9.55.72 7.72 1.42 12.37 1.8 11.96.05-.05.24-3.14.435-6.87.31-5.91.41-6.76.78-6.69.35.07.52.94.89 4.58.26 2.48.48 4.81.49 5.19.05 1.41.49-.14.83-2.94.54-4.48 1.19-3.98 1.5 1.16.17 2.86.5 4.51.83 4.18.06-.06.3-3.17.55-6.92.4-6.16.69-8.06 1.06-6.93.07.21.27 2.98.44 6.15.28 5.14.75 8.26 1.16 7.58.08-.13.23-2.05.34-4.27.18-3.718.44-4.85.94-4.05.11.17.35 2 .54 4.06.31 3.31.66 4.97.99 4.64.06-.06.24-1.02.39-2.14.47-3.28 1.02-3.12 1.65.49.19 1.09.43 1.98.54 1.98s.34-.89.53-1.98c.64-3.62 1.19-3.77 1.65-.48.41 2.97 1.09 4.36 1.48 3.06.2-.67 5.63-38.72 7.12-49.89 1.52-11.43 1.51-11.36 1.79-11.19.13.08.29-.07.37-.34.22-.73-.03 6.74-.34 10.3-.15 1.73-1.75 14.24-3.56 27.8-3.27 24.51-3.29 24.67-4.1 25.89-.45.68-.95 1.93-1.12 2.78-.7 3.62-1.24 3.54-1.69-.25-.17-1.41-.33-2.6-.36-2.64-.18-.26-1.03.39-1.25.95-.28.75-.88.7-1.02-.09-.33-1.85-1.32-.17-1.77 2.99-.17 1.22-.43 2.22-.58 2.22-.35 0-.63-1.09-.67-2.59-.05-1.99-.42-2.13-.92-.35-.25.92-.56 3.72-.73 6.74-.17 2.83-.37 5.27-.46 5.41-.43.69-.62-.76-.94-7.25-.35-6.94-.36-7.04-.82-6.14-.33.64-.53 1.94-.67 4.39-.18 3.25-.46 4.28-.94 3.5-.11-.18-.36-2.53-.55-5.22-.19-2.69-.4-4.9-.46-4.9-.4 0-1.15 1.09-1.23 1.78-.13 1.14-.53 1.02-.92-.28l-.33-1.1-.18.82c-.1.45-.32 1.19-.486 1.64-.17.45-.45 3.19-.64 6.09-.19 3.06-.46 5.39-.64 5.57-.22.22-.34.2-.43-.08-.07-.21-.39-3.89-.71-8.16-.33-4.28-.68-7.95-.79-8.14-.11-.2-.37 1.09-.56 2.86s-.48 3.59-.63 4.04c-.15.45-.42 4.6-.6 9.22-.21 5.48-.44 8.51-.64 8.71-.23.23-.34.21-.43-.08-.07-.22-.4-5.49-.72-11.72s-.62-11.36-.65-11.39c-.03-.04-.48-.1-.99-.14-.83-.07-.99.04-1.55 1.03-.34.61-.74 1.95-.89 2.97-.31 2.18-.69 2.76-1.1 1.67-.15-.41-.28-.85-.28-.99 0-.76-.62-2.98-.81-2.87-.12.07-.37.96-.56 1.98-.55 3-1.2 3.29-1.5.68-.09-.86-.24-1.8-.32-2.09-.31-1.12-.75.52-1.17 4.34-.38 3.56-.64 4.32-1.15 3.37-.1-.2-.29-2.14-.41-4.32l-.205-4-.45 1.37c-.3.9-.57 3.24-.78 6.82-.176 3-.38 5.56-.46 5.69-.39.64-.61-.65-.88-5.27-.17-2.78-.37-5.71-.46-6.52-.26-2.45-.76-1.21-1.066 2.63-.22 2.84-.35 3.48-.714 3.55-.37.07-.5-.42-.793-3.07-.19-1.73-.43-3.15-.54-3.15-.1 0-.41 2.34-.68 5.2s-.6 5.26-.71 5.33c-.5.31-.74-1.08-.93-5.34-.11-2.48-.28-5.24-.38-6.14l-.06-1.7-.47 1.34c-.3.855-.77 4.5-1.3 10.1-.46 4.82-.89 8.93-.96 9.13-.09.28-.21.295-.49.07-.27-.226-.4-1.88-.54-6.65-.1-3.49-.26-8.115-.36-10.27-.17-3.867-.18-3.916-.67-3.28-.33.43-.5 1.12-.5 2.05 0 .848-.15 1.527-.38 1.71-.44.376-.72.08-1.26-1.33-.99-2.61-1.24-1.55-2.21 9.4-.45 5.12-.88 9.48-.95 9.7-.09.28-.21.31-.43.09-.27-.27-1.01-16.14-1.04-22.44 0-1.28-.11-2.19-.24-2.04-.13.15-.56 1.51-.96 3.04-.54 2.05-.84 4.24-1.15 8.33-.45 5.97-.53 6.47-.94 6.06-.2-.2-1.08-12.59-1.09-15.23 0-.5-.02-.5-.54-.02-.3.28-.54.77-.54 1.1s-.18.76-.41.95c-.45.37-.48.32-.82-1.22-.15-.67-.23-.74-.44-.37-.53.95-1.04 3.77-1.22 6.72-.18 2.91-.46 3.84-.95 3.06-.12-.19-.3-2.25-.41-4.56-.11-2.32-.28-4.11-.39-3.99-.53.62-.86 2.91-1.12 7.87-.27 4.96-.55 6.64-.92 5.57-.14-.38-.98-12.27-.98-13.79 0-.69-.05-.73-.41-.37-.25.25-.48 1.21-.59 2.49-.33 3.82-1 3.61-1.48-.47-.19-1.59-.43-2.93-.54-3-.27-.17-1.01.71-1.13 1.34-.18.96-.74.77-1.05-.37-.16-.61-.35-1.11-.42-1.11-.36 0-.92 1.76-1.17 3.65-.47 3.56-1.02 3.37-1.69-.58-.18-1.09-.42-1.98-.53-1.98-.11 0-.36.83-.56 1.84-.68 3.47-1.2 3.28-1.66-.6l-.34-2.85-.62.41c-.34.22-.68.64-.76.93-.21.8-.73.64-.91-.29-.09-.45-.25-.82-.36-.82-.4 0-.97 1.58-1.37 3.82-.23 1.28-.54 2.32-.68 2.32-.33 0-.65-1.69-.67-3.48-.01-.71-.11-1.3-.23-1.3-.44 0-.97 3.3-1.26 7.83-.19 2.94-.43 4.82-.64 5.03-.51.5-.56.16-.9-6.58-.17-3.38-.37-6.19-.43-6.26-.4-.4-.9 2.26-1.08 5.64-.18 3.55-.39 4.58-.79 3.93-.08-.13-.34-2.61-.57-5.52-.24-2.9-.49-5.34-.55-5.4-.25-.24-.96.6-1.16 1.36-.29 1.11-.74 1.09-.84-.04-.14-1.47-.51-1.54-.72-.13-.11.7-.35 1.72-.55 2.28-.2.56-.44 3.09-.56 5.72-.18 4.15-.26 4.71-.65 4.63-.38-.07-.53-1.15-1.04-7.45-.33-4.06-.6-7.65-.61-7.99-.01-.34-.12-.61-.24-.61s-.43 1.63-.67 3.61c-.25 1.99-.56 4.23-.7 4.99-.14.75-.34 4.65-.45 8.67-.11 4.02-.31 7.37-.44 7.45-.56.34-.78-1.66-1.32-12.01-.31-5.99-.6-10.92-.64-10.95-.04-.03-.46-.14-.94-.25-.83-.18-.91-.13-1.56 1.16-.38.74-.77 2-.87 2.81-.21 1.61-.57 2.52-.91 2.3-.13-.08-.37-.91-.55-1.85-.63-3.31-.77-3.35-1.39-.4-.57 2.69-1.14 2.68-1.48-.02-.14-1.09-.34-1.98-.45-1.98-.41 0-.63 1.06-1.05 5.05-.24 2.26-.56 4.1-.71 4.1-.31 0-.57-1.91-.84-6-.17-2.68-.18-2.71-.61-1.91-.31.59-.52 2.3-.75 6.18-.32 5.2-.49 6.26-.94 5.78-.12-.13-.37-2.93-.56-6.24-.18-3.3-.43-6.11-.54-6.24-.37-.41-.77 1.53-.96 4.67-.28 4.65-.93 4.34-1.51-.71-.18-1.55-.41-2.72-.53-2.59-.11.12-.42 2.56-.68 5.41-.26 2.86-.54 5.29-.61 5.42-.43.7-.67-.92-1.01-6.75-.21-3.56-.44-6.55-.53-6.63-.43-.42-1.07 3.67-1.82 11.65-.47 4.88-.9 9.05-.98 9.26-.1.27-.22.3-.42.1-.18-.18-.43-4.23-.66-10.44-.2-5.59-.44-10.23-.52-10.31-.09-.09-.34 0-.56.18-.26.22-.43.96-.49 2.13-.05 1-.22 1.84-.39 1.89-.17.05-.57-.51-.89-1.26-.71-1.66-1.05-1.91-1.39-1.02-.14.37-.64 5.02-1.12 10.32-.79 8.86-1.09 10.826-1.47 9.76z"/>
    <path d="M263.42 111.614c-.08-.225-.286-5.323-.458-11.33-.173-6.005-.372-11.093-.44-11.306-.526-1.604-2.21 4.965-2.584 10.078-.16 2.178-.347 4.24-.417 4.584-.29 1.455-.58.096-.75-3.55-.44-9.52-.58-10.497-1.26-8.882-.14.338-.45.86-.68 1.16-.37.466-.46.486-.69.135-.14-.224-.26-.695-.26-1.045-.01-1.074-.63-.51-1.03.928-.79 2.864-.87 3.304-.88 4.76-.01 1.56-.33 2.488-.66 1.945-.1-.16-.24-1.37-.32-2.69-.17-3.04-.35-4.17-.64-4.17-.12 0-.31.47-.41 1.03-.1.57-.3 1.4-.45 1.85-.15.45-.35 2.6-.46 4.78-.11 2.33-.3 3.96-.46 3.96-.16 0-.43-2.46-.65-6.07-.21-3.34-.47-6.07-.59-6.07-.37 0-1.05 1.67-1.23 3.04-.32 2.46-.76 1.98-1.08-1.2-.1-1.01-.3-1.92-.45-2.01-.14-.09-.59.16-1 .55-.94.9-1.04.9-1.26-.1-.1-.45-.29-.82-.42-.82-.47 0-1.33 2.15-1.54 3.86-.11.96-.33 1.74-.48 1.74-.15 0-.44-.95-.64-2.13-.44-2.54-1.02-2.78-1.57-.64-.6 2.37-1.04 2.01-1.33-1.08-.13-1.46-.29-2.01-.57-2.01-.21 0-.38.11-.38.24s-.31.45-.68.69c-.67.44-.7.43-.95-.24-.15-.38-.38-.69-.52-.69-.38 0-1.39 2.22-1.62 3.59-.25 1.49-.71 1.55-.8.1-.11-1.72-.34-2.87-.59-2.87-.4 0-1.19 3.88-1.38 6.75-.1 1.54-.27 2.89-.38 3-.37.37-.71-.58-.71-1.99-.01-2.87-.37-8.03-.56-8.03-.4 0-1.16 2.64-1.26 4.37-.27 4.38-.78 3.85-1.2-1.23-.18-2.1-.37-3.88-.44-3.95-.07-.07-.44.29-.84.79-.67.86-.74.89-1.08.42-.2-.27-.36-.78-.36-1.12 0-1.01-.51-.72-.7.39-.09.57-.36 1.76-.6 2.67-.24.9-.52 3.03-.63 4.73-.11 1.7-.32 3.23-.49 3.39-.41.41-.5-.16-.98-6.79-.42-5.75-.56-6.65-.99-6.65-.33 0-.46.64-.8 3.96-.17 1.66-.43 3.38-.59 3.83-.15.45-.37 3.32-.49 6.37-.12 3.25-.33 5.67-.5 5.84-.44.44-.53-.33-.86-7.3-.48-10.13-.52-10.5-1.2-10.48-.32.01-.84-.06-1.16-.16-.5-.16-.68.02-1.29 1.35-.39.85-.78 1.99-.87 2.55-.09.56-.23 1.2-.3 1.42-.2.64-.58-.14-.78-1.63-.1-.69-.28-1.42-.41-1.63-.38-.61-1.02.14-1.24 1.45-.29 1.76-.57 2.13-.93 1.2-.16-.43-.29-1.12-.29-1.55 0-.9-.24-1.64-.53-1.64-.42 0-1.07 2.37-1.24 4.5-.1 1.2-.24 2.4-.31 2.66-.33 1.19-.6-.09-.78-3.75-.18-3.74-.48-4.9-.81-3.21-.08.41-.32 1.36-.54 2.11-.21.75-.46 2.84-.56 4.64-.16 3.12-.45 4.35-.76 3.24-.07-.28-.21-2.16-.3-4.19-.18-4.08-.37-5.73-.66-5.73-.4 0-.92 1.87-1.11 4.03-.31 3.48-.91 3.42-1.24-.1-.17-1.85-.48-2.59-.89-2.18-.09.09-.36 2.22-.6 4.74s-.56 4.58-.7 4.58c-.21 0-.77-7.11-.92-11.67-.04-1.31-.47-.81-1.07 1.23-.38 1.32-.83 4.63-1.34 9.9-.44 4.59-.87 7.92-1.03 7.92-.23 0-.8-11.72-.93-18.9-.03-1.69-.45-1.9-.71-.36-.1.6-.35 1.22-.57 1.4-.24.21-.39.85-.39 1.75 0 .78-.09 1.51-.19 1.62-.11.11-.47-.42-.8-1.18-.68-1.54-1.24-1.75-1.69-.63-.17.41-.61 4.12-.98 8.23-.62 6.94-1.01 9.04-1.35 7.37-.07-.36-.27-5.26-.45-10.89-.17-5.63-.37-10.29-.43-10.36-.63-.65-2.17 5.6-2.55 10.36-.31 3.81-.65 5.19-.93 3.8-.07-.36-.26-3.22-.43-6.37-.27-5.25-.44-6.57-.75-5.7-.19.53-1.19 1.72-1.45 1.72-.13 0-.31-.37-.41-.82-.25-1.14-.61-1.02-.95.35-.16.63-.41 1.43-.55 1.77-.14.33-.33 1.62-.42 2.86-.34 4.77-.7 4.58-1.08-.57-.15-2.05-.39-3.73-.53-3.73-.49 0-1.04 2.77-1.28 6.55-.13 2.1-.31 4.01-.39 4.23-.31.88-.59-.44-.76-3.68-.29-5.36-.51-7.78-.7-7.78-.32 0-1.11 1.89-1.11 2.67 0 .41-.13.92-.27 1.15-.43.65-.74-.08-.96-2.23-.1-1.02-.29-1.93-.41-2-.12-.08-.55.26-.96.75s-.82.89-.91.89c-.09 0-.23-.36-.3-.8s-.29-.84-.46-.9c-.45-.15-1.37 2.08-1.6 3.87-.1.84-.29 1.59-.43 1.67-.13.08-.24.11-.25.07 0-.05-.3-1.56-.67-3.36-.48-2.35-.98-7.15-1.77-16.93-.6-7.5-1.65-20.3-2.33-28.44-.68-8.14-1.23-15.05-1.23-15.36 0-1.15-.5-.51-.69.87-.21 1.56-.51 2.33-.76 1.94-.08-.14-.3-1.57-.48-3.18-.2-1.83-.47-3.04-.71-3.24-.5-.41-.91-.01-1.14 1.12-.23 1.14-.7 1.19-.8.1-.05-.47-.27-1.02-.51-1.21-.68-.57-1.12.36-1.33 2.77-.1 1.17-.3 2.29-.43 2.5-.39.61-.77-.25-.8-1.81-.03-1.89-.34-3.48-.71-3.61-.46-.15-.58.87-.92 7.43-.17 3.3-.36 6.3-.44 6.66-.33 1.63-.62-.29-.9-5.98-.35-6.93-.5-8.25-.93-8.11-.43.15-.63 1.64-.86 6.41-.19 3.86-.44 5.15-.78 3.96-.07-.26-.22-2.14-.32-4.16-.19-3.92-.52-6.23-.93-6.65-.15-.16-.43.13-.73.74-.26.55-.55 1-.65 1-.1 0-.38-.51-.63-1.15-.29-.72-.55-1.05-.71-.88-.45.45-.79 3.65-.97 9.13-.1 2.93-.24 5.55-.32 5.83-.36 1.28-.63-.45-1.04-6.51-.24-3.6-.49-6.74-.55-6.96-.71-2.59-1.04-3.55-1.22-3.55-.46 0-.91 5.46-1.24 15.15-.19 5.56-.36 10.16-.38 10.22-.02.07-.15.01-.3-.14-.14-.14-.44-4.31-.67-9.26-.44-9.45-.65-12.5-.89-13.13-.08-.21-.47-.36-.87-.34-.4.02-.92-.04-1.15-.14-.76-.33-1.13.59-1.49 3.69-.49 4.32-.89 4.38-1.49.22-.19-1.34-.45-2.43-.58-2.43-.13 0-.24.03-.25.06-.01.04-.23 1.3-.48 2.8s-.59 2.73-.73 2.73c-.15 0-.42-1.28-.6-2.85-.3-2.59-.64-3.65-1.04-3.25-.08.09-.32 2.16-.54 4.6-.37 4.25-.75 5.8-1.06 4.33-.08-.36-.22-2.36-.31-4.45-.18-3.87-.47-5.38-.95-4.9-.28.28-.79 6.81-.81 10.34-.01 2.28-.27 3.25-.7 2.56-.13-.2-.38-2.99-.56-6.2-.3-5.38-.55-6.86-1.04-6.07-.1.17-.31 2.3-.46 4.74-.43 7.01-.69 7.35-1.33 1.78-.23-1.96-.54-3.62-.7-3.67-.19-.06-.43 1.63-.7 4.96-.23 2.78-.5 5.14-.61 5.25-.47.47-.66-.81-.83-5.75-.19-5.26-.58-8.65-.98-8.65-.33 0-.77 2.31-.95 5.05-.35 5.45-1.27 16.96-1.4 17.58-.1.46-.22.57-.43.36-.18-.19-.38-3.07-.51-7.62-.36-11.84-.64-15.92-1.09-15.92-.29 0-.73 2.38-.94 5.18-.1 1.27-.25 2.43-.33 2.57-.09.14-.45-.4-.79-1.19-.68-1.52-1.12-1.67-1.63-.54-.17.36-.57 4.47-.9 9.12-.65 9.21-.74 9.91-1.14 9.5-.15-.15-.38-4.1-.53-9.12-.25-8.33-.66-15.07-.98-16.15-.26-.86-.61-.51-1.08 1.09-.3 1-.65 4.06-.95 8.39-.27 3.76-.49 6.88-.51 6.95-.02.07-.17-.01-.33-.18-.18-.18-.44-2.94-.67-7.08-.38-7.03-.52-8.1-1.03-7.93-.27.09-.5.83-.89 2.87-.15.78-.65.53-.65-.33 0-.95-.57-2.38-.9-2.27-.47.16-.66 1.38-1 6.34-.29 4.38-.62 5.97-.92 4.48-.07-.36-.24-2.71-.38-5.23-.23-4.29-.52-5.65-1.03-4.83-.11.18-.34 3.19-.51 6.69-.16 3.5-.4 6.46-.52 6.58-.47.48-.64-.68-.95-6.56-.31-5.99-.44-6.99-.87-6.99-.32 0-.48.94-.68 3.82-.32 4.64-.74 4.69-1.21.14-.37-3.63-.48-4.01-1.05-3.9-.29.06-.52.5-.65 1.29-.37 2.17-.76 2.06-1.16-.32-.12-.75-.31-1.02-.67-1.02-.55 0-.68.54-1 4.13-.32 3.68-.9 3.6-1.47-.21-.22-1.46-.45-2.28-.65-2.21-.17.06-.49 1.18-.72 2.49s-.54 2.41-.69 2.43c-.15.02-.41-1.27-.59-2.88-.18-1.6-.4-3.17-.5-3.48-.27-.85-1.02-.53-1.3.56-.34 1.34-.68 1.59-.89.66-.35-1.58-.44-1.75-.94-1.75-.57 0-.71.48-.97 3.41-.09 1.05-.23 2.13-.31 2.4-.25.91-.6.18-.77-1.65-.29-3.18-.44-3.89-.83-3.89-.5 0-.63 1.13-1.02 8.73-.2 3.88-.44 6.42-.61 6.42-.17 0-.39-2.64-.58-6.75-.32-6.92-.5-8.68-.9-8.68-.44 0-.59.94-.85 5.3-.15 2.4-.39 4.49-.54 4.64-.34.33-.26.82-.68-4.62-.2-2.55-.44-4.86-.55-5.12-.29-.73-.92-.57-1.11.27-.32 1.45-.43 1.71-.64 1.58-.12-.07-.29-.61-.39-1.2-.17-1.04-.81-1.92-1.08-1.48-.28.45-.7 5.53-.88 10.66-.17 4.81-.44 6.53-.77 4.92-.07-.34-.32-3.64-.55-7.33-.42-6.58-.95-9.75-1.69-10-.53-.18-.93 4.76-1.24 15.48-.28 9.55-.5 12.18-.88 10.34-.07-.36-.34-5.32-.59-11.03s-.58-10.9-.68-11.5c-.16-.98-.26-1.09-.99-1.12-.45-.01-1.03-.12-1.29-.23-.69-.29-1.2 1.11-1.43 3.98-.32 3.88-.73 3.89-1.4.05-.61-3.49-.78-3.46-1.37.24-.61 3.81-.99 3.84-1.32.1-.24-2.74-.41-3.41-.85-3.41-.21 0-.39.15-.39.34.01.82-.59 7.77-.71 8.36-.31 1.52-.73-.13-.95-3.71-.25-4.22-.43-5.55-.77-5.55-.48 0-.62 1.16-.93 7.69-.28 6.17-.49 7.78-.84 6.75-.07-.21-.3-3.36-.52-7.01-.21-3.65-.46-6.71-.56-6.81-.47-.48-.7.73-.99 5.11-.17 2.63-.37 4.96-.44 5.19-.28.84-.57-.4-.92-3.9-.23-2.31-.45-3.46-.65-3.39-.19.06-.48 2.13-.75 5.4-.52 6.17-.44 5.62-.79 5.27-.15-.16-.39-2.61-.54-5.45s-.34-6-.44-7.02c-.27-2.93-1.05-2.81-1.32.19-.08.9-.46 5.82-.85 10.93s-.77 9.57-.84 9.93c-.39 1.91-.65-.79-.92-9.52-.17-5.33-.42-10.67-.56-11.87-.14-1.2-.26-2.28-.26-2.39 0-.12-.11-.21-.24-.21-.35 0-.61 1.41-.83 4.57-.24 3.39-.6 3.96-1.25 2-.49-1.48-1.02-1.76-1.53-.81-.17.31-.61 4.64-.98 9.62s-.73 9.34-.81 9.7c-.39 1.87-.63-.83-.92-10.38-.33-10.6-.72-15.67-1.23-15.67-.71 0-1.23 3.03-1.65 9.63-.23 3.72-.48 7.05-.56 7.41-.34 1.65-.63-.32-.91-6.12-.37-7.73-.57-9.42-1.11-9.42-.27 0-.77 1.62-.87 2.86-.11 1.31-.6.95-.79-.59-.18-1.47-.39-2.01-.77-2.01-.44 0-.61 1-.95 5.53-.19 2.52-.43 4.66-.54 4.77-.43.43-.64-.71-.82-4.52-.2-4.14-.35-5.24-.71-5.24-.46 0-.59 1.18-.86 7.37-.15 3.53-.33 6.71-.4 7.07-.32 1.6-.64-.23-.91-5.3-.42-7.83-.53-8.87-.96-8.87-.46 0-.62.79-.843 4.3-.18 2.71-.51 3.76-.77 2.46-.07-.34-.28-2.02-.46-3.72-.24-2.23-.44-3.14-.73-3.25-.49-.18-.88.38-.89 1.3 0 .38-.13.87-.28 1.09-.24.37-.3.37-.54 0-.15-.22-.27-.72-.27-1.11s-.16-.92-.36-1.18c-.6-.82-.94 0-1.27 3.11-.39 3.57-.53 4.24-.82 3.93-.32-.32-1.38-6.04-1.37-7.35V28l.53.64c.3.36.71.57.93.49.46-.18.97-1.83.98-3.18.01-1 .37-1.87.62-1.46.08.12.28.96.44 1.86.51 2.75 1.18 2.75 1.69 0 .17-.9.37-1.74.45-1.86.25-.42.61.47.64 1.6.05 1.54.34 2.44.85 2.53.51.1.67-.61.91-4.04.09-1.27.23-2.61.3-2.97.26-1.24.66-.16.81 2.172.18 2.84.65 5.717.94 5.717.39 0 .8-3.37.98-8.19.17-4.51.42-6.21.75-5.19.08.22.27 2.86.44 5.87.32 5.81.45 6.77.93 6.61.42-.14.64-1.47.86-5.18.18-3.06.51-4.23.8-2.88.08.34.28 2.03.45 3.76.17 1.73.36 3.2.43 3.27.34.36.56-.98.88-5.39.19-2.66.4-5.07.48-5.35.36-1.25.64.36.91 5.29.32 5.67.52 7.13 1 7.29.54.18.89-2.34 1.6-11.66.39-5.03.77-9.44.84-9.8.38-1.82.64.65.9 8.71.28 8.78.71 14.38 1.13 14.84.12.13.4-.19.62-.72.48-1.14.8-1.37 2.21-1.56.91-.12 1.11-.27 1.3-.96.12-.45.42-5.18.65-10.51.24-5.33.49-9.99.56-10.35.37-1.85.62.72.89 9.26.26 8.3.61 13.21 1.02 14.44.22.69.67-.09 1.19-2.06.3-1.16.61-3.95.81-7.34.35-5.94.45-6.79.81-6.57.13.08.32 2.21.42 4.72.1 2.52.3 5.59.44 6.82.4 3.47.7 3.85 1.47 1.91l.47-1.16.53 1.03c.29.56.64 1.02.78 1.02.43 0 .81-1.92.99-5.05.1-1.65.28-3.19.4-3.41.38-.71.8.94.8 3.11 0 2.1.49 5.08.83 5.08.4 0 .56-1.33.84-6.96.16-3.16.34-6.03.416-6.39.31-1.58.61.22.9 5.43.33 5.93.49 7.29.85 7.52.42.25.77-.84.96-2.98.3-3.24.71-3.05 1.08.51.1.91.37 1.94.6 2.31l.43.67.66-.8.66-.81.43.62c.95 1.38 1.59.57 1.87-2.4.25-2.68.51-3.16 1.02-1.9.21.52.46 1.17.555 1.43.29.82.67.53 1.14-.89.25-.75.55-1.31.67-1.23.12.07.3.97.4 1.98.24 2.51.69 4.71.96 4.71.47 0 .78-4.14 1.1-14.44.14-4.68.36-8.13.52-8.29.37-.37.48.27.83 4.85.92 12.21 1.15 14.87 1.42 16.04.56 2.49.97 1.47 1.35-3.34.13-1.73.24-4.09.25-5.24 0-2.06.38-3.76.75-3.39.1.1.38 2.49.61 5.29.24 2.94.53 5.1.69 5.1.15 0 .45-1.72.68-3.82s.53-3.82.68-3.82c.16 0 .4 1.9.58 4.54.3 4.47.45 5.3.92 5.01.3-.19.49-1.93.81-7.35.14-2.39.38-4.46.53-4.61.41-.41.53.5.72 5.54.19 5.04.39 6.59.84 6.74.46.15.64-.83.83-4.48.16-3.21.38-4.25.8-3.83.1.11.31 1.7.45 3.54s.37 3.64.51 4c.42 1.11.87.22 1.18-2.32.15-1.28.4-2.33.55-2.33.15 0 .43.95.63 2.13.19 1.17.46 2.24.59 2.37.46.46.76-.12.94-1.81.21-2.02.55-2.75.97-2.11.14.22.27.87.27 1.45 0 1.27.52 3.41.87 3.63.14.09.57-.13.95-.48l.69-.64.41.61c.92 1.37 1.58.48 1.92-2.62.11-1 .32-1.81.47-1.81.14 0 .4.83.57 1.85.47 2.89 1.3 3.22 1.62.64.19-1.51.52-2.33.82-2.03.095.1.275.99.4 1.99.25 1.99.34 2.18.91 1.96.47-.18.64-1.12.87-4.7.095-1.5.23-2.95.31-3.21.31-1.12.58 0 .76 3.14.19 3.44.54 5.4.95 5.4.4 0 .79-3.24.99-8.27.1-2.67.29-4.92.43-5 .13-.09.25-.11.27-.07.01.05.18 2.66.37 5.82.34 5.68.54 7.23.95 7.23.35 0 .54-1.06.82-4.63.26-3.31.64-4.63.93-3.27.08.36.27 1.93.43 3.5.28 2.75.4 3.27.69 2.97.08-.07.33-2.52.56-5.43.47-5.87.58-6.61.91-6.41.13.08.32 2.33.42 5 .2 5 .56 8.23.96 8.64.59.59.93-1.68 1.75-11.71 1.21-14.68 1.36-14.73 1.78-.53.28 9.51.69 14.61 1.16 14.61.13 0 .4-.42.62-.93.45-1.08 1.31-1.63 2.24-1.45 1.31.25 1.35.01 1.98-13.32.28-5.89.56-9.56.72-9.56.17 0 .386 3.71.58 9.96.31 10.14.74 15.12 1.29 14.93.75-.25 1.32-3.44 1.77-9.89.27-3.88.57-6.55.73-6.55.16 0 .4 2.54.6 6.42.34 6.58.55 8.21 1.08 8.39.17.05.46-.34.63-.87.39-1.18.68-1.22 1.23-.15.24.45.53.82.66.82.4 0 .8-2.19.98-5.32.1-1.65.23-3.3.31-3.66.28-1.33.62-.1.79 2.83.19 3.33.6 5.87.94 5.87.4 0 .56-1.43.87-7.78.28-5.83.56-7.72.88-6.11.08.36.27 3.23.43 6.38.32 6.15.43 6.96 1 6.96.35 0 .46-.42.8-3.06.09-.71.27-1.36.41-1.45.28-.17.43.4.67 2.54.09.79.23 1.62.32 1.84.24.63 1.06.47 1.46-.28.44-.83.71-.87.9-.14.17.66.94 1 1.34.6.16-.16.43-1.48.59-2.93.17-1.45.42-2.66.56-2.68.13-.02.44.57.68 1.31.48 1.5.98 1.87 1.24.92.69-2.46 1.22-2.63 1.24-.41.01 1.83.59 4.62.99 4.75.46.16.58-1.4.92-11.52.33-10 .39-10.76.86-10.3.29.29.55 2.83 1.44 14.11.43 5.42.77 7.51 1.21 7.51.41 0 .57-1.36.87-7.24.16-3.16.35-6.03.43-6.39.31-1.56.66.2 1.09 5.44.25 3.07.5 5.64.554 5.7.26.29.42-.42.78-3.54.38-3.32.79-4.56 1.05-3.24.07.36.24 2.29.39 4.29.25 3.44.56 4.62 1.02 3.87.11-.17.35-2.86.55-5.96.19-3.1.36-5.7.38-5.77.01-.07.16.01.33.18.18.18.41 2.28.56 5.15.26 5.06.5 6.8.9 6.8.42 0 .68-1.54.84-5.05.28-6.1.72-6.2 1.19-.27.35 4.45.45 4.92.96 4.92.424 0 .584-.58.84-3.07.19-1.85.51-2.54.77-1.64.07.26.28 1.37.45 2.46.21 1.3.44 1.98.68 1.98.36 0 .5-.43.83-2.6.43-2.76.85-2.57 1.2.53.15 1.36.4 2.28.69 2.57.42.41.51.38 1.11-.36l.65-.81.25.67c.134.37 1.39 14.55 2.785 31.52s2.66 31.01 2.81 31.2c.43.56.692.04.9-1.72.24-2.12.61-3.16.92-2.59.12.22.31.92.41 1.55.21 1.31.86 2.06 1.24 1.44.13-.21.32-1 .42-1.76.22-1.64.56-2.43.76-1.79.07.23.21.93.3 1.56.2 1.47.69 2.54 1.15 2.54.2 0 .37-.23.37-.51 0-.92.56-6.16.7-6.55.28-.79.54.08.71 2.38.17 2.3.94 5.23 1.38 5.23.12 0 .22-.64.23-1.43.03-3.27.48-8.44.75-8.72.39-.39.52.3.72 3.8.08 1.53.27 3.07.4 3.41.14.35.33.964.42 1.38.33 1.564.65.64.84-2.456.31-4.97.76-5.16 1.33-.55.19 1.51.44 2.53.65 2.6.19.07.34-.11.35-.38.01-1.26.82-8.35.97-8.6.37-.6.65.5.67 2.64.03 2.17.25 3.92.75 6 .15.6.35 1.55.44 2.12.31 1.78.62 1.11.81-1.78.36-5.35 1.4-15.46 1.61-15.67.48-.49.72.78.75 4 .04 3.99.28 6.89 1.04 12.15.3 2.1.56 3.974.56 4.16.02.68.53.31.83-.62.36-1.07 1.1-1.59 2.24-1.56.54.02.77-.11.78-.44.15-4.4 1.02-17.28 1.17-17.43.49-.48.72.81.74 4.15.03 3.81.17 5.44 1.05 11.604.31 2.17.57 4.05.57 4.16.01.11.13.2.28.2.43 0 .56-.91 1.07-7.46.27-3.41.57-6.28.68-6.39.43-.428.71.71.73 2.93.01 1.28.13 2.88.26 3.55.91 4.64 1.17 5.73 1.39 5.73.13 0 .24-.317.24-.7 0-.39.14-.954.3-1.26.29-.53.33-.51 1 .43.39.544.79.99.89.99.2 0 .39-1.81.72-6.63.27-4.07.77-3.82 1 .49.11 2.05.9 5.324 1.29 5.324.1 0 .3-2.31.45-5.14.15-2.83.37-5.3.48-5.49.39-.63.68.29.7 2.17.03 3.07.86 7.92 1.35 7.92.31 0 .55-1.02.56-2.32.01-1.12.36-2.02.63-1.6.08.13.23.73.33 1.33.21 1.28 1.23 3.68 1.56 3.68.13 0 .31-.37.4-.82.23-1.15.46-1.2 1.15-.26 1.01 1.35 1.28 1.06 1.62-1.7.17-1.38.42-2.61.55-2.75.15-.14.42.2.68.84.64 1.61.95 1.62 1.59.07.32-.76.68-1.31.81-1.23.13.08.24.92.24 1.87 0 1.13.13 1.83.38 2.04.21.17.46.8.55 1.4.22 1.38.72 1.42.71.06-.02-3.66.67-19.9.85-20.1.33-.36.43.35 1.21 8.98.49 5.29.91 8.53 1.28 9.76.59 1.98 1.04 2.39 1.04.96 0-1.67.58-11.26.7-11.64.3-.89.53.27.95 4.63.57 5.9.86 6.42 1.37 2.41.42-3.26.51-3.65.82-3.34.15.14.34 1.3.42 2.56.16 2.31.78 4.89 1.19 4.89.22 0 .44-2.24.7-7.24.3-5.76.68-5.63 1.11.36.3 4.22.8 6.8 1.33 6.94.16.04.35-1.35.48-3.48.11-1.95.27-3.73.36-3.96.28-.78.58.31.77 2.87.17 2.33.81 4.78 1.25 4.78.21 0 .53-1.6.54-2.73 0-.38.13-.87.27-1.09.38-.59.73.02.96 1.68.15 1.11.76 2.18 1.05 1.84.05-.06.26-1.02.47-2.13.21-1.11.5-1.99.65-1.95.15.03.41.82.57 1.74.32 1.82 1.07 3.73 1.45 3.73.13 0 .4-.25.61-.57l.38-.57.72.57c.4.31.84.57.99.57.14 0 .35-.83.45-1.84.33-3.27.74-3.71 1.24-1.32.27 1.34.9 2.36 1.24 2.02.07-.07.28-.89.47-1.82.19-.93.46-1.72.61-1.75.15-.03.34.5.42 1.19.15 1.31.94 2.83 1.34 2.58.13-.08.32-1.35.423-2.83.29-4.04.96-4.6 1.27-1.05.17 1.98.82 4.14 1.24 4.14.13 0 .37-2.28.54-5.05.17-2.78.33-5.11.35-5.18.02-.07.16.01.31.16.16.16.4 1.75.53 3.54.25 3.26.73 5.42 1.24 5.61.16.06.38-1.3.55-3.45.16-2.03.39-3.53.54-3.52.15.01.43 1.3.62 2.87s.4 3 .47 3.19c.36.99.63-.07.94-3.69.39-4.61.5-5.17.91-4.75.16.15.38 1.81.49 3.69.12 1.87.3 3.55.41 3.73.12.18.34 1.02.51 1.87.36 1.79.82 2.01.93.44.18-2.66 1.46-16.17 1.59-16.76.37-1.72.71.38.93 5.87.13 3.28.36 6.4.504 6.93.14.53.4 2.24.58 3.82s.38 3.08.45 3.34c.19.694.6.59.8-.21.23-.9 1.11-1.496 2.22-1.496.54 0 .89-.138.89-.34-.02-1.09.89-17.65 1-18.197.346-1.72.66.38.9 5.99.146 3.37.38 6.56.53 7.09.146.53.41 2.25.58 3.82.35 3.22.48 3.82.81 3.82.37 0 .51-1 .96-7.23.247-3.3.5-6.3.58-6.66.3-1.42.67.01.82 3.14.09 1.79.32 3.86.52 4.61s.51 2.07.68 2.93c.36 1.84.75 2.03.87.43.05-.63.21-1.18.36-1.23.15-.05.56.34.92.87s.74.95.84.95c.11 0 .32-1.77.48-3.94.16-2.17.38-4.09.49-4.26.38-.62.67.38.67 2.36.01 1.96.85 4.66 1.36 4.34.12-.08.31-2.28.42-4.89.11-2.61.29-4.9.41-5.08.4-.64.62.27.83 3.41.21 3.1.97 6.96 1.37 6.96.12 0 .29-.83.39-1.84l.23-2.39c.11-1.1.607-.5.79.96.21 1.68 1.14 4.09 1.58 4.09.16 0 .28-.11.28-.25 0-.15.12-.58.27-.97l.27-.71.78.87c.43.48.91.79 1.06.69.16-.1.38-1.13.49-2.3.1-1.16.32-2.36.48-2.66.26-.49.33-.44.78.62.595 1.4 1.11 1.47 1.57.2.57-1.6 1.13-1.08 1.13 1.06 0 .63.13 1.28.3 1.45.16.16.38.68.47 1.16.1.47.3.88.45.91.17.03.4-3.55.62-9.77.31-8.89.585-11.56.98-9.67.075.36.45 4.05.837 8.2.67 7.21 1.273 10.57 1.95 10.79.19.06.4-1.9.6-5.69.17-3.18.43-5.9.58-6.05.36-.36.47.26.85 4.58.17 1.95.37 3.77.44 4.03.3 1.03.59.37.89-2.05.18-1.39.39-2.8.46-3.15.27-1.26.6-.27.79 2.33.18 2.583.8 4.99 1.28 4.99.13 0 .24-.34.24-.75 0-1.48.58-9.77.72-10.17.29-.87.64.42.66 2.45.03 3.53.86 8.74 1.39 8.74.13 0 .24-.09.25-.21.01-.11.12-1.59.24-3.29s.35-3.22.5-3.37c.37-.37.52.19.75 2.87.18 2.15.74 4 1.2 4 .13 0 .33-.9.43-2.01.31-3.32.62-3.4 1.29-.31.52 2.4 1.11 2.35 1.55-.12.51-2.86.83-2.81 1.23.19.19 1.4.95 3.07 1.4 3.07.19 0 .4-.275.49-.61.233-.95 5.73-39.51 7.275-51.05.76-5.66 1.49-10.576 1.63-10.92.35-.86.36 4.89.018 7.03-.143.9-1.87 13.74-3.83 28.53-3.55 26.82-3.56 26.91-4.36 28.03-.44.614-.93 1.72-1.09 2.453s-.36 1.52-.44 1.74c-.27.76-.6-.265-.8-2.49-.2-2.3-.37-2.48-1.5-1.6-.88.69-1 .68-1.2-.14-.09-.38-.29-.69-.43-.69-.43 0-1.64 2.65-1.64 3.61 0 .95-.38 1.8-.61 1.4-.08-.13-.23-1.18-.33-2.35s-.29-2.11-.41-2.11c-.43 0-1.19 3.8-1.42 7.1-.13 1.88-.3 3.58-.38 3.79-.34.95-.55-.4-.81-5.25-.17-3.28-.38-5.2-.55-5.13-.49.19-1.23 2.59-1.23 3.99 0 .75-.12 1.55-.27 1.77-.5.76-.75-.213-.95-3.72-.11-1.86-.27-3.38-.37-3.38s-.52.37-.95.82c-.89.95-1.27.86-1.27-.31 0-1.413-.66-.73-.98 1.017-.16.89-.43 2.05-.61 2.57s-.39 2.53-.48 4.44c-.16 3.27-.48 4.58-.77 3.15-.07-.34-.33-3.38-.58-6.76-.43-5.77-.72-7.48-1.21-6.93-.11.13-.41 1.94-.66 4.02-.25 2.07-.56 3.98-.684 4.23-.13.24-.32 3.15-.42 6.45-.17 5.49-.46 7.55-.81 5.84-.11-.56-1-16.71-.99-18.05 0-.32-.2-.47-.61-.46-.34.01-.89-.07-1.23-.17-.54-.17-.7 0-1.43 1.54-.45.95-.82 2.19-.82 2.74 0 1.01-.45 1.67-.67.99-.063-.2-.26-1.06-.43-1.93-.47-2.41-1.15-1.99-1.77 1.09-.1.49-.28.89-.41.89-.3 0-.453-.58-.673-2.52-.1-.86-.27-1.57-.39-1.57-.43 0-1.09 2.36-1.27 4.5-.2 2.34-.5 3.34-.78 2.6-.09-.23-.25-1.81-.36-3.53-.21-3.22-.66-4.23-1.01-2.29-.1.57-.31 1.41-.45 1.86s-.35 2.54-.46 4.64c-.11 2.24-.31 3.82-.47 3.82-.22 0-.83-6.85-.94-10.58-.07-2.29-1.28 1.05-1.54 4.23-.17 2.12-.54 2.96-.79 1.79-.072-.34-.25-1.59-.394-2.76-.26-2.14-.42-2.62-.76-2.28-.1.1-.38 2.14-.63 4.54-.43 4.15-.654 5.19-.944 4.35-.12-.37-.7-9.3-.7-10.9 0-1.38-.47-.9-1.07 1.1-.4 1.31-.8 4.22-1.27 9.22-.74 7.95-.85 8.725-1.19 8.36-.2-.21-.85-14.87-.84-18.74 0-1.63-.39-1.67-.79-.085-.16.67-.42 1.29-.58 1.38-.15.1-.27.77-.27 1.5 0 1.77-.43 1.95-1.07.45-.66-1.54-.98-1.73-1.51-.92-.31.47-.61 2.82-1.13 8.81-.67 7.82-.96 9.79-1.29 8.84z"/>
  </g>
</svg>
